<?xml version="1.0" encoding="UTF-8"?>
<svg version="1.1" xmlns="http://www.w3.org/2000/svg" viewBox="0 0 512 512" width="512" height="512">
<path d="M0 0 C168.96 0 337.92 0 512 0 C512 168.96 512 337.92 512 512 C343.04 512 174.08 512 0 512 C0 343.04 0 174.08 0 0 Z " fill="#0E78F9" transform="translate(0,0)"/>
<path d="M0 0 C166.32 0 332.64 0 504 0 C504 15.51 504 31.02 504 47 C390.81 47 277.62 47 161 47 C161 170.09 161 293.18 161 420 C107.87 420 54.74 420 0 420 C0 281.4 0 142.8 0 0 Z " fill="#FEFEFE" transform="translate(4,4)"/>
<path d="M0 0 C36.96 0 73.92 0 112 0 C112 122.76 112 245.52 112 372 C75.04 372 38.08 372 0 372 C0 249.24 0 126.48 0 0 Z " fill="#010000" transform="translate(166,52)"/>
<path d="M0 0 C38.61 0 77.22 0 117 0 C117 94.71 117 189.42 117 287 C78.39 287 39.78 287 0 287 C0 192.29 0 97.58 0 0 Z " fill="#FEFEFE" transform="translate(278,137)"/>
<path d="M0 0 C168.96 0 337.92 0 512 0 C512 168.96 512 337.92 512 512 C343.04 512 174.08 512 0 512 C0 343.04 0 174.08 0 0 Z M4 4 C4 170.32 4 336.64 4 508 C170.32 508 336.64 508 508 508 C508 341.68 508 175.36 508 4 C341.68 4 175.36 4 4 4 Z " fill="#040202" transform="translate(0,0)"/>
</svg>
